<svg width="92" height="14" viewBox="0 0 92 14" fill="none" xmlns="http://www.w3.org/2000/svg">
<path d="M5.558 0.891999C6.118 0.891999 6.594 0.971333 6.986 1.13C7.378 1.28867 7.76067 1.51267 8.134 1.802C8.23667 1.886 8.32533 1.928 8.4 1.928C8.58667 1.928 8.708 1.648 8.764 1.088H9.086C9.04867 1.72267 9.03 2.852 9.03 4.476H8.708C8.624 3.78533 8.512 3.258 8.372 2.894C8.232 2.53 7.994 2.21267 7.658 1.942C7.42467 1.718 7.154 1.55 6.846 1.438C6.538 1.31667 6.216 1.256 5.88 1.256C4.93733 1.256 4.23733 1.718 3.78 2.642C3.32267 3.55667 3.094 4.7 3.094 6.072C3.094 7.43467 3.332 8.57333 3.808 9.488C4.284 10.4027 4.99333 10.86 5.936 10.86C6.25333 10.86 6.566 10.804 6.874 10.692C7.19133 10.5707 7.45733 10.398 7.672 10.174C8.01733 9.91267 8.25533 9.586 8.386 9.194C8.526 8.802 8.63333 8.228 8.708 7.472H9.03C9.03 9.16133 9.04867 10.3373 9.086 11H8.764C8.736 10.7013 8.694 10.4913 8.638 10.37C8.59133 10.2393 8.52133 10.174 8.428 10.174C8.35333 10.174 8.25533 10.2113 8.134 10.286C7.714 10.5847 7.31267 10.8133 6.93 10.972C6.54733 11.1213 6.08533 11.196 5.544 11.196C4.55467 11.196 3.68667 10.9953 2.94 10.594C2.20267 10.1927 1.62867 9.614 1.218 8.858C0.807333 8.09267 0.602 7.18267 0.602 6.128C0.602 5.10133 0.812 4.19133 1.232 3.398C1.652 2.60467 2.23533 1.98867 2.982 1.55C3.738 1.11133 4.59667 0.891999 5.558 0.891999ZM17.3891 0.891999C18.3784 0.891999 19.2418 1.09267 19.9791 1.494C20.7258 1.89533 21.3044 2.47867 21.7151 3.244C22.1258 4 22.3311 4.90533 22.3311 5.96C22.3311 6.98667 22.1211 7.89667 21.7011 8.69C21.2811 9.48333 20.6931 10.0993 19.9371 10.538C19.1904 10.9767 18.3364 11.196 17.3751 11.196C16.3858 11.196 15.5178 10.9953 14.7711 10.594C14.0338 10.1927 13.4598 9.614 13.0491 8.858C12.6384 8.09267 12.4331 7.18267 12.4331 6.128C12.4331 5.10133 12.6431 4.19133 13.0631 3.398C13.4831 2.60467 14.0664 1.98867 14.8131 1.55C15.5691 1.11133 16.4278 0.891999 17.3891 0.891999ZM17.3331 1.144C16.8198 1.144 16.3671 1.354 15.9751 1.774C15.5831 2.18467 15.2798 2.76333 15.0651 3.51C14.8598 4.25667 14.7571 5.11067 14.7571 6.072C14.7571 7.04267 14.8738 7.89667 15.1071 8.634C15.3498 9.37133 15.6718 9.94067 16.0731 10.342C16.4838 10.7433 16.9364 10.944 17.4311 10.944C17.9444 10.944 18.3971 10.7387 18.7891 10.328C19.1811 9.908 19.4798 9.32467 19.6851 8.578C19.8998 7.83133 20.0071 6.97733 20.0071 6.016C20.0071 5.04533 19.8858 4.19133 19.6431 3.454C19.4098 2.71667 19.0878 2.14733 18.6771 1.746C18.2758 1.34467 17.8278 1.144 17.3331 1.144ZM34.4853 1.368C34.1773 1.41467 33.9486 1.494 33.7993 1.606C33.6593 1.718 33.5613 1.89533 33.5053 2.138C33.4586 2.38067 33.4353 2.74 33.4353 3.216V11.028L33.0993 11.014L32.7213 11.028L26.6453 3.328V8.704C26.6453 9.25467 26.6733 9.66067 26.7293 9.922C26.7853 10.174 26.9066 10.3607 27.0933 10.482C27.2799 10.594 27.5833 10.6733 28.0033 10.72V11C27.6393 10.972 27.1353 10.958 26.4913 10.958C25.9779 10.958 25.5719 10.972 25.2733 11V10.72C25.5813 10.6733 25.8053 10.594 25.9453 10.482C26.0946 10.37 26.1926 10.1927 26.2393 9.95C26.2953 9.70733 26.3233 9.348 26.3233 8.872V2.572C26.3233 2.21733 26.2953 1.96067 26.2393 1.802C26.1926 1.64333 26.0946 1.536 25.9453 1.48C25.8053 1.424 25.5813 1.38667 25.2733 1.368V1.088C25.5719 1.116 25.9779 1.13 26.4913 1.13C26.9579 1.13 27.3593 1.116 27.6953 1.088L33.1133 7.766V3.384C33.1133 2.83333 33.0853 2.432 33.0293 2.18C32.9733 1.91867 32.8519 1.732 32.6653 1.62C32.4786 1.49867 32.1753 1.41467 31.7553 1.368V1.088C32.1193 1.116 32.6233 1.13 33.2673 1.13C33.7899 1.13 34.1959 1.116 34.4853 1.088V1.368ZM47.6991 10.902C47.5404 11.9567 47.2184 12.6847 46.7331 13.086C46.5278 13.254 46.2664 13.3847 45.9491 13.478C45.6411 13.5807 45.3004 13.632 44.9271 13.632C44.4231 13.632 43.9238 13.5527 43.4291 13.394C42.9438 13.2353 42.3418 12.9973 41.6231 12.68C41.4458 12.6053 41.2498 12.5213 41.0351 12.428C40.8298 12.344 40.5964 12.2507 40.3351 12.148L39.9991 12.05C39.8218 12.1433 39.6258 12.2133 39.4111 12.26C39.2058 12.316 39.0098 12.344 38.8231 12.344C38.6271 12.344 38.4684 12.3113 38.3471 12.246C38.2258 12.19 38.1651 12.1013 38.1651 11.98C38.1651 11.728 38.4218 11.602 38.9351 11.602C39.2804 11.602 39.6351 11.6673 39.9991 11.798C40.3164 11.7047 40.6524 11.5787 41.0071 11.42C41.0724 11.392 41.1704 11.35 41.3011 11.294C41.4318 11.2473 41.5484 11.2053 41.6511 11.168C40.7831 11.084 40.0224 10.832 39.3691 10.412C38.7251 9.98267 38.2258 9.404 37.8711 8.676C37.5258 7.948 37.3531 7.09867 37.3531 6.128C37.3531 5.10133 37.5631 4.19133 37.9831 3.398C38.4031 2.60467 38.9864 1.98867 39.7331 1.55C40.4891 1.11133 41.3478 0.891999 42.3091 0.891999C43.2984 0.891999 44.1618 1.09267 44.8991 1.494C45.6458 1.89533 46.2244 2.47867 46.6351 3.244C47.0458 4 47.2511 4.90533 47.2511 5.96C47.2511 6.94933 47.0551 7.836 46.6631 8.62C46.2711 9.39467 45.7204 10.006 45.0111 10.454C44.3018 10.902 43.4944 11.1447 42.5891 11.182C42.3651 11.21 42.1644 11.252 41.9871 11.308C41.8098 11.364 41.5998 11.4433 41.3571 11.546C41.0584 11.6767 40.7691 11.784 40.4891 11.868L41.6231 11.966C42.8084 12.0687 43.6624 12.12 44.1851 12.12C44.5304 12.12 44.8804 12.0967 45.2351 12.05C45.8138 11.9847 46.2711 11.8587 46.6071 11.672C46.9431 11.4947 47.2231 11.2147 47.4471 10.832L47.6991 10.902ZM39.6771 6.072C39.6771 7.04267 39.7938 7.89667 40.0271 8.634C40.2698 9.37133 40.5918 9.94067 40.9931 10.342C41.4038 10.7433 41.8564 10.944 42.3511 10.944C42.8644 10.944 43.3171 10.7387 43.7091 10.328C44.1011 9.908 44.3998 9.32467 44.6051 8.578C44.8198 7.83133 44.9271 6.97733 44.9271 6.016C44.9271 5.04533 44.8058 4.19133 44.5631 3.454C44.3298 2.71667 44.0078 2.14733 43.5971 1.746C43.1958 1.34467 42.7478 1.144 42.2531 1.144C41.7398 1.144 41.2871 1.354 40.8951 1.774C40.5031 2.18467 40.1998 2.76333 39.9851 3.51C39.7798 4.25667 39.6771 5.11067 39.6771 6.072ZM59.1383 1.368C58.8303 1.41467 58.6016 1.494 58.4523 1.606C58.3123 1.718 58.2143 1.89533 58.1583 2.138C58.1116 2.38067 58.0883 2.74 58.0883 3.216V6.926C58.0883 8.26067 57.897 9.25 57.5143 9.894C57.2623 10.3047 56.8983 10.6267 56.4223 10.86C55.9463 11.084 55.363 11.196 54.6723 11.196C53.5896 11.196 52.7496 10.9627 52.1523 10.496C51.723 10.1507 51.4336 9.71667 51.2843 9.194C51.135 8.662 51.0603 7.92 51.0603 6.968V2.572C51.0603 2.21733 51.0323 1.96067 50.9763 1.802C50.9296 1.64333 50.8316 1.536 50.6823 1.48C50.5423 1.424 50.3183 1.38667 50.0103 1.368V1.088C50.4863 1.116 51.2143 1.13 52.1943 1.13C53.165 1.13 53.907 1.116 54.4203 1.088V1.368C54.0843 1.38667 53.837 1.424 53.6783 1.48C53.529 1.536 53.4263 1.64333 53.3703 1.802C53.3143 1.96067 53.2863 2.21733 53.2863 2.572V7.85C53.2863 8.83 53.4263 9.55333 53.7063 10.02C53.9956 10.4773 54.4996 10.706 55.2183 10.706C56.1516 10.706 56.8096 10.3933 57.1923 9.768C57.575 9.13333 57.7663 8.23733 57.7663 7.08V3.384C57.7663 2.84267 57.7336 2.44133 57.6683 2.18C57.603 1.91867 57.477 1.732 57.2903 1.62C57.1036 1.49867 56.8096 1.41467 56.4083 1.368V1.088C56.763 1.116 57.267 1.13 57.9203 1.13C58.443 1.13 58.849 1.116 59.1383 1.088V1.368ZM69.5046 8.872C69.5046 9.73067 69.5373 10.44 69.6026 11C68.968 10.972 67.8993 10.958 66.3966 10.958C64.362 10.958 62.8406 10.972 61.8326 11V10.72C62.1406 10.7013 62.3646 10.664 62.5046 10.608C62.654 10.552 62.752 10.4447 62.7986 10.286C62.8546 10.1273 62.8826 9.87067 62.8826 9.516V2.572C62.8826 2.21733 62.8546 1.96067 62.7986 1.802C62.752 1.64333 62.654 1.536 62.5046 1.48C62.3646 1.424 62.1406 1.38667 61.8326 1.368V1.088C62.8406 1.116 64.362 1.13 66.3966 1.13C67.7686 1.13 68.744 1.116 69.3226 1.088C69.2573 1.86267 69.2246 2.55333 69.2246 3.16C69.2246 3.57067 69.2386 3.888 69.2666 4.112H68.9446C68.8046 3.11333 68.5526 2.41333 68.1886 2.012C67.8246 1.61067 67.3113 1.41 66.6486 1.41H66.0746C65.7853 1.41 65.5753 1.43333 65.4446 1.48C65.314 1.52667 65.2253 1.62 65.1786 1.76C65.132 1.89067 65.1086 2.10533 65.1086 2.404V5.876H65.5566C66.0513 5.876 66.4246 5.694 66.6766 5.33C66.938 4.966 67.12 4.532 67.2226 4.028H67.5446C67.5166 4.42 67.5026 4.85867 67.5026 5.344V6.016C67.5026 6.492 67.5306 7.15467 67.5866 8.004H67.2646C67.0686 6.772 66.4993 6.156 65.5566 6.156H65.1086V9.684C65.1086 9.98267 65.132 10.202 65.1786 10.342C65.2253 10.4727 65.314 10.5613 65.4446 10.608C65.5753 10.6547 65.7853 10.678 66.0746 10.678H66.7606C67.4233 10.678 67.9553 10.454 68.3566 10.006C68.7673 9.54867 69.0566 8.77867 69.2246 7.696H69.5466C69.5186 8.004 69.5046 8.396 69.5046 8.872ZM76.1657 0.906C76.651 0.906 77.0384 0.952666 77.3277 1.046C77.617 1.13933 77.911 1.27467 78.2097 1.452C78.3124 1.508 78.401 1.55467 78.4757 1.592C78.5597 1.62933 78.6297 1.648 78.6857 1.648C78.7697 1.648 78.835 1.60133 78.8817 1.508C78.9284 1.40533 78.9657 1.24667 78.9937 1.032H79.3157C79.269 1.65733 79.2457 2.72133 79.2457 4.224H78.9237C78.8864 3.72 78.7697 3.23933 78.5737 2.782C78.387 2.32467 78.1164 1.956 77.7617 1.676C77.4164 1.38667 77.0104 1.242 76.5437 1.242C76.0864 1.242 75.713 1.37267 75.4237 1.634C75.1437 1.886 75.0037 2.23133 75.0037 2.67C75.0037 2.99667 75.0737 3.28133 75.2137 3.524C75.3537 3.76667 75.5497 3.99067 75.8017 4.196C76.0537 4.392 76.441 4.66267 76.9637 5.008L77.4117 5.316C77.9624 5.68 78.3964 5.99733 78.7137 6.268C79.031 6.53867 79.2877 6.856 79.4837 7.22C79.689 7.57467 79.7917 7.99 79.7917 8.466C79.7917 9.06333 79.6377 9.56733 79.3297 9.978C79.0217 10.3793 78.6017 10.6827 78.0697 10.888C77.547 11.0933 76.9637 11.196 76.3197 11.196C75.797 11.196 75.363 11.1493 75.0177 11.056C74.6724 10.9627 74.355 10.8367 74.0657 10.678C73.8604 10.5473 73.7017 10.482 73.5897 10.482C73.5057 10.482 73.4404 10.5333 73.3937 10.636C73.347 10.7293 73.3097 10.8833 73.2817 11.098H72.9597C72.997 10.51 73.0157 9.25 73.0157 7.318H73.3377C73.403 8.36333 73.6364 9.21267 74.0377 9.866C74.439 10.51 75.055 10.832 75.8857 10.832C76.3897 10.832 76.805 10.6967 77.1317 10.426C77.4584 10.1553 77.6217 9.768 77.6217 9.264C77.6217 8.74133 77.4537 8.29333 77.1177 7.92C76.7817 7.54667 76.2497 7.12667 75.5217 6.66C74.9617 6.296 74.5137 5.97867 74.1777 5.708C73.8417 5.43733 73.5664 5.12 73.3517 4.756C73.137 4.38267 73.0297 3.95333 73.0297 3.468C73.0297 2.908 73.1697 2.43667 73.4497 2.054C73.739 1.662 74.1217 1.37267 74.5977 1.186C75.0737 0.999333 75.5964 0.906 76.1657 0.906ZM91.3135 1.088C91.2481 1.97467 91.2155 2.768 91.2155 3.468C91.2155 3.90667 91.2295 4.26133 91.2575 4.532H90.9355C90.7115 3.384 90.4035 2.57667 90.0115 2.11C89.6288 1.64333 89.1015 1.41 88.4295 1.41H88.1075V9.404C88.1075 9.796 88.1448 10.0807 88.2195 10.258C88.3035 10.4353 88.4435 10.5567 88.6395 10.622C88.8448 10.678 89.1668 10.7107 89.6055 10.72V11C88.4295 10.972 87.5428 10.958 86.9455 10.958C86.3575 10.958 85.5035 10.972 84.3835 11V10.72C84.8221 10.7107 85.1395 10.678 85.3355 10.622C85.5408 10.5567 85.6808 10.4353 85.7555 10.258C85.8395 10.0807 85.8815 9.796 85.8815 9.404V1.41H85.5735C85.1255 1.41 84.7428 1.508 84.4255 1.704C84.1175 1.9 83.8515 2.22667 83.6275 2.684C83.4035 3.132 83.2121 3.748 83.0535 4.532H82.7315C82.7595 4.26133 82.7735 3.90667 82.7735 3.468C82.7735 2.768 82.7408 1.97467 82.6755 1.088C83.5248 1.116 84.9668 1.13 87.0015 1.13C89.0361 1.13 90.4735 1.116 91.3135 1.088Z" fill="white"/>
</svg>
